<?xml version="1.0" ?><svg data-name="Layer 3" id="Layer_3" viewBox="0 0 32 32" xmlns="http://www.w3.org/2000/svg"><defs><style>.cls-1,.cls-3{fill:none;stroke:#0832ff;stroke-linecap:round;stroke-linejoin:round;}.cls-1{stroke-width:2px;}.cls-2{fill:#0832ff;}</style></defs><title/><path class="cls-1" d="M10,8a10,10,0,1,1-4,8"/><path class="cls-1" d="M16,6c5.52,0,9,4.48,9,10s-3.48,10-9,10"/><path class="cls-2" d="M7.44,11.23l5.15-.93a.45.45,0,0,0,.24-.77L8.61,5.31a.45.45,0,0,0-.77.24L6.91,10.7A.45.45,0,0,0,7.44,11.23Z"/><path class="cls-3" d="M12.5,15A1.5,1.5,0,0,1,14,13.5,1.33,1.33,0,0,1,15.5,15c0,1.5-3,3.5-3,3.5h3"/><polyline class="cls-3" points="19.5 13.5 19.5 16.5 17.5 16.5 17.5 13.5"/><line class="cls-3" x1="19.5" x2="19.5" y1="18.5" y2="16.5"/></svg>